<svg width="40" height="40" viewBox="0 0 40 40" fill="none" xmlns="http://www.w3.org/2000/svg">
<path fill-rule="evenodd" clip-rule="evenodd" d="M18.748 11.8105L25.8314 4.74385C26.4814 4.09385 27.548 4.09385 28.198 4.74385L35.2647 11.8105C35.9147 12.4605 35.9147 13.5105 35.2647 14.1605L28.1814 21.2438C27.5314 21.8938 26.4814 21.8938 25.8314 21.2438L18.748 14.1605C18.098 13.5105 18.098 12.4605 18.748 11.8105ZM4.24805 7.41051V17.4105C4.24805 18.3272 4.99805 19.0772 5.91471 19.0772H15.9147C16.8314 19.0772 17.5814 18.3272 17.5814 17.4105V7.41051C17.5814 6.49384 16.8314 5.74384 15.9147 5.74384H5.91471C4.99805 5.74384 4.24805 6.49384 4.24805 7.41051ZM15.9147 35.7438H5.91471C4.99805 35.7438 4.24805 34.9938 4.24805 34.0772V24.0772C4.24805 23.1605 4.99805 22.4105 5.91471 22.4105H15.9147C16.8314 22.4105 17.5814 23.1605 17.5814 24.0772V34.0772C17.5814 34.9938 16.8314 35.7438 15.9147 35.7438ZM20.9147 34.0772V24.0772C20.9147 23.1605 21.6647 22.4105 22.5814 22.4105H32.5814C33.498 22.4105 34.248 23.1605 34.248 24.0772V34.0772C34.248 34.9938 33.498 35.7438 32.5814 35.7438H22.5814C21.6647 35.7438 20.9147 34.9938 20.9147 34.0772Z" fill="#1421FF"/>
</svg>
