<svg width="40" height="40" viewBox="0 0 40 40" fill="none" xmlns="http://www.w3.org/2000/svg">
<path fill-rule="evenodd" clip-rule="evenodd" d="M17.7503 4.9001L11.5503 15.0334C10.867 16.1334 11.667 17.5668 12.967 17.5668H25.3503C26.6503 17.5668 27.4503 16.1334 26.767 15.0334L20.5837 4.9001C19.9337 3.83343 18.4003 3.83343 17.7503 4.9001ZM28.3337 20.9001C25.6542 20.9001 23.1782 22.3296 21.8385 24.6501C20.4987 26.9706 20.4987 29.8296 21.8385 32.1501C23.1782 34.4706 25.6542 35.9001 28.3337 35.9001C31.0131 35.9001 33.4891 34.4706 34.8288 32.1501C36.1686 29.8296 36.1686 26.9706 34.8288 24.6501C33.4891 22.3296 31.0131 20.9001 28.3337 20.9001ZM15.8337 35.0668H5.83366C4.91699 35.0668 4.16699 34.3168 4.16699 33.4001V23.4001C4.16699 22.4834 4.91699 21.7334 5.83366 21.7334H15.8337C16.7503 21.7334 17.5003 22.4834 17.5003 23.4001V33.4001C17.5003 34.3168 16.7503 35.0668 15.8337 35.0668Z" fill="#1421FF"/>
</svg>
