<svg width="40" height="40" viewBox="0 0 40 40" fill="none" xmlns="http://www.w3.org/2000/svg">
<path fill-rule="evenodd" clip-rule="evenodd" d="M3.33301 20C3.33301 10.8 10.7997 3.33334 19.9997 3.33334C29.1997 3.33334 36.6663 10.8 36.6663 20C36.6663 29.2 29.1997 36.6667 19.9997 36.6667C10.7997 36.6667 3.33301 29.2 3.33301 20ZM9.49968 21.1667L15.483 27.15C16.133 27.8 17.1997 27.8 17.833 27.15L30.483 14.5C31.133 13.85 31.133 12.8 30.483 12.15C29.833 11.5 28.783 11.5 28.133 12.15L16.6663 23.6167L11.8497 18.8167C11.1997 18.1667 10.1497 18.1667 9.49968 18.8167C9.18759 19.1281 9.0122 19.5508 9.0122 19.9917C9.0122 20.4325 9.18759 20.8553 9.49968 21.1667Z" fill="#1421FF"/>
</svg>
