<svg width="40" height="40" viewBox="0 0 40 40" fill="none" xmlns="http://www.w3.org/2000/svg">
<path fill-rule="evenodd" clip-rule="evenodd" d="M3.33301 19.9999C3.33301 10.7999 10.7997 3.33325 19.9997 3.33325C29.1997 3.33325 36.6663 10.7999 36.6663 19.9999C36.6663 29.1999 29.1997 36.6666 19.9997 36.6666C10.7997 36.6666 3.33301 29.1999 3.33301 19.9999ZM9.16634 24.9999C9.16634 27.2999 11.033 29.1666 13.333 29.1666C15.633 29.1666 17.4997 27.2999 17.4997 24.9999C17.4997 22.6999 15.633 20.8333 13.333 20.8333C11.033 20.8333 9.16634 22.6999 9.16634 24.9999ZM15.833 13.3333C15.833 11.0333 17.6997 9.16659 19.9997 9.16659C22.2997 9.16659 24.1663 11.0333 24.1663 13.3333C24.1663 15.6333 22.2997 17.4999 19.9997 17.4999C17.6997 17.4999 15.833 15.6333 15.833 13.3333ZM22.4997 24.9999C22.4997 27.2999 24.3663 29.1666 26.6663 29.1666C28.9663 29.1666 30.833 27.2999 30.833 24.9999C30.833 22.6999 28.9663 20.8333 26.6663 20.8333C24.3663 20.8333 22.4997 22.6999 22.4997 24.9999Z" fill="#1421FF"/>
</svg>
