<svg width="40" height="40" viewBox="0 0 40 40" fill="none" xmlns="http://www.w3.org/2000/svg">
<path fill-rule="evenodd" clip-rule="evenodd" d="M31.6663 0H8.33301C7.41634 0 6.66634 0.75 6.66634 1.66667C6.66634 2.58333 7.41634 3.33333 8.33301 3.33333H31.6663C32.583 3.33333 33.333 2.58333 33.333 1.66667C33.333 0.75 32.583 0 31.6663 0ZM31.6663 40C32.583 40 33.333 39.25 33.333 38.3333C33.333 37.4167 32.583 36.6667 31.6663 36.6667H8.33301C7.41634 36.6667 6.66634 37.4167 6.66634 38.3333C6.66634 39.25 7.41634 40 8.33301 40H31.6663ZM6.66634 6.66667H33.333C35.1663 6.66667 36.6663 8.16667 36.6663 10V30C36.6663 31.8333 35.1663 33.3333 33.333 33.3333H6.66634C4.83301 33.3333 3.33301 31.8333 3.33301 30V10C3.33301 8.16667 4.83301 6.66667 6.66634 6.66667ZM19.9997 11.25C22.0663 11.25 23.7497 12.9333 23.7497 15C23.7497 17.0667 22.0663 18.75 19.9997 18.75C17.933 18.75 16.2497 17.0667 16.2497 15C16.2497 12.9333 17.933 11.25 19.9997 11.25ZM11.6663 28.3333H28.333V25.8333C28.333 23.05 22.783 21.6667 19.9997 21.6667C17.2163 21.6667 11.6663 23.05 11.6663 25.8333V28.3333Z" fill="#1421FF"/>
</svg>
