<svg width="20" height="20" viewBox="0 0 20 20" fill="none" xmlns="http://www.w3.org/2000/svg">
<path d="M10 20C15.5142 20 20 15.5133 20 10C20 4.48667 15.5133 0 10 0C4.48667 0 0 4.48583 0 10C0 15.5142 4.48583 20 10 20ZM10 1.25C14.8233 1.25 18.75 5.175 18.75 10C18.75 14.8233 14.8233 18.75 10 18.75C5.175 18.75 1.25 14.8233 1.25 10C1.25 5.175 5.175 1.25 10 1.25Z" fill="white"/>
<path d="M14.7853 4.22583C13.4869 3.1475 11.8194 2.5 10.0003 2.5C9.47527 2.5 8.96277 2.555 8.46777 2.6575C9.37777 3.9475 10.2044 5.29 10.9319 6.68167C12.3078 6.04 13.6028 5.2125 14.7853 4.22583Z" fill="white"/>
<path d="M12.3883 9.87683C14.0483 9.53517 15.7758 9.5035 17.4883 9.78766C17.4383 8.00017 16.7658 6.37017 15.6758 5.10767C14.3892 6.19183 12.9742 7.09017 11.4717 7.79267C11.8 8.47767 12.105 9.17183 12.3883 9.87683Z" fill="white"/>
<path d="M9.76491 7.15435C9.01324 5.72852 8.16241 4.35352 7.21241 3.04102C4.96074 3.94352 3.25408 5.90351 2.69824 8.30935C5.12574 8.41268 7.52824 8.00851 9.76491 7.15435Z" fill="white"/>
<path d="M11.17 10.1875C10.9092 9.54495 10.6267 8.91245 10.325 8.28662C8.15999 9.12995 5.8475 9.58995 3.49583 9.58995C3.1725 9.58995 2.8475 9.56995 2.5225 9.55245C2.51417 9.70079 2.5 9.84912 2.5 9.99995C2.5 11.8416 3.16667 13.5266 4.2675 14.8316C6.06833 12.595 8.48999 10.9925 11.17 10.1875Z" fill="white"/>
<path d="M12.8467 11.0592C13.4425 12.7225 13.91 14.4317 14.2533 16.1734C15.9433 15.0075 17.1233 13.1659 17.4192 11.0384C15.8867 10.7675 14.3375 10.7792 12.8467 11.0592Z" fill="white"/>
<path d="M5.1543 15.7199C6.46263 16.829 8.15096 17.4999 10.0001 17.4999C11.1101 17.4999 12.161 17.2524 13.1085 16.819C12.7651 14.9515 12.2651 13.124 11.6193 11.3499C9.0993 12.0857 6.82346 13.5982 5.1543 15.7199Z" fill="white"/>
</svg>
