<svg width="20" height="20" viewBox="0 0 20 20" fill="none" xmlns="http://www.w3.org/2000/svg">
<g clip-path="url(#clip0)">
<path d="M10.0037 4.86499C7.1679 4.86499 4.87207 7.16332 4.87207 9.99666C4.87207 12.8325 7.1704 15.1283 10.0037 15.1283C12.8396 15.1283 15.1354 12.83 15.1354 9.99666C15.1354 7.16082 12.8371 4.86499 10.0037 4.86499ZM10.0037 13.3275C8.1629 13.3275 6.6729 11.8367 6.6729 9.99666C6.6729 8.15666 8.16374 6.66582 10.0037 6.66582C11.8437 6.66582 13.3346 8.15666 13.3346 9.99666C13.3354 11.8367 11.8446 13.3275 10.0037 13.3275Z" fill="white"/>
<path d="M14.1225 0.0633105C12.2825 -0.0225228 7.72505 -0.0183562 5.88338 0.0633105C4.26505 0.139144 2.83755 0.529977 1.68671 1.68081C-0.236621 3.60414 0.00921282 6.19581 0.00921282 9.99664C0.00921282 13.8866 -0.207454 16.4183 1.68671 18.3125C3.61755 20.2425 6.24671 19.99 10.0025 19.99C13.8559 19.99 15.1859 19.9925 16.5484 19.465C18.4009 18.7458 19.7992 17.09 19.9359 14.1158C20.0225 12.275 20.0175 7.71831 19.9359 5.87664C19.7709 2.36581 17.8867 0.236644 14.1225 0.0633105ZM17.035 17.04C15.7742 18.3008 14.025 18.1883 9.97838 18.1883C5.81171 18.1883 4.14088 18.25 2.92171 17.0275C1.51755 15.63 1.77171 13.3858 1.77171 9.98331C1.77171 5.37914 1.29921 2.06331 5.92005 1.82664C6.98171 1.78914 7.29421 1.77664 9.96671 1.77664L10.0042 1.80164C14.445 1.80164 17.9292 1.33664 18.1384 5.95664C18.1859 7.01081 18.1967 7.32748 18.1967 9.99581C18.1959 14.1141 18.2742 15.795 17.035 17.04Z" fill="white"/>
<path d="M15.3378 5.86195C16.0001 5.86195 16.537 5.32507 16.537 4.66279C16.537 4.00051 16.0001 3.46362 15.3378 3.46362C14.6756 3.46362 14.1387 4.00051 14.1387 4.66279C14.1387 5.32507 14.6756 5.86195 15.3378 5.86195Z" fill="white"/>
</g>
<defs>
<clipPath id="clip0">
<rect width="20" height="20" fill="white"/>
</clipPath>
</defs>
</svg>
