<svg width="40" height="40" viewBox="0 0 40 40" fill="none" xmlns="http://www.w3.org/2000/svg">
<path fill-rule="evenodd" clip-rule="evenodd" d="M12.4997 30.8337H7.49967C6.58301 30.8337 5.83301 30.0837 5.83301 29.167V10.8337C5.83301 9.91699 6.58301 9.16699 7.49967 9.16699H12.4997C13.4163 9.16699 14.1663 9.91699 14.1663 10.8337V29.167C14.1663 30.0837 13.4163 30.8337 12.4997 30.8337ZM22.4997 30.8337H17.4997C16.583 30.8337 15.833 30.0837 15.833 29.167V22.5003C15.833 21.5837 16.583 20.8337 17.4997 20.8337H22.4997C23.4163 20.8337 24.1663 21.5837 24.1663 22.5003V29.167C24.1663 30.0837 23.4163 30.8337 22.4997 30.8337ZM27.4997 30.8337H32.4997C33.4163 30.8337 34.1663 30.0837 34.1663 29.167V22.5003C34.1663 21.5837 33.4163 20.8337 32.4997 20.8337H27.4997C26.583 20.8337 25.833 21.5837 25.833 22.5003V29.167C25.833 30.0837 26.583 30.8337 27.4997 30.8337ZM15.833 17.5003V10.8337C15.833 9.91699 16.583 9.16699 17.4997 9.16699H32.4997C33.4163 9.16699 34.1663 9.91699 34.1663 10.8337V17.5003C34.1663 18.417 33.4163 19.167 32.4997 19.167H17.4997C16.583 19.167 15.833 18.417 15.833 17.5003Z" fill="#1421FF"/>
</svg>
