<svg width="40" height="40" viewBox="0 0 40 40" fill="none" xmlns="http://www.w3.org/2000/svg">
<path fill-rule="evenodd" clip-rule="evenodd" d="M20.0003 7.5C11.667 7.5 4.55033 12.6833 1.66699 20C4.55033 27.3167 11.667 32.5 20.0003 32.5C28.3337 32.5 35.4503 27.3167 38.3337 20C35.4503 12.6833 28.3337 7.5 20.0003 7.5ZM20.0003 28.3333C15.4003 28.3333 11.667 24.6 11.667 20C11.667 15.4 15.4003 11.6667 20.0003 11.6667C24.6003 11.6667 28.3337 15.4 28.3337 20C28.3337 24.6 24.6003 28.3333 20.0003 28.3333ZM15.0003 20C15.0003 17.2333 17.2337 15 20.0003 15C22.767 15 25.0003 17.2333 25.0003 20C25.0003 22.7667 22.767 25 20.0003 25C17.2337 25 15.0003 22.7667 15.0003 20Z" fill="#1421FF"/>
</svg>
