<svg width="40" height="40" viewBox="0 0 40 40" fill="none" xmlns="http://www.w3.org/2000/svg">
<path fill-rule="evenodd" clip-rule="evenodd" d="M3.33301 20C3.33301 10.8333 10.833 3.33333 19.9997 3.33333C29.1663 3.33333 36.6663 10.8333 36.6663 20C36.6663 29.1667 29.1663 36.6667 19.9997 36.6667C10.833 36.6667 3.33301 29.1667 3.33301 20ZM19.1163 22.15L25.9163 26.3333C26.5163 26.7 27.2997 26.5167 27.6663 25.9333C28.033 25.3333 27.833 24.55 27.233 24.1833L20.833 20.3333V12.9167C20.833 12.2333 20.2663 11.6667 19.583 11.6667C18.8997 11.6667 18.333 12.2333 18.3163 12.9167V20.7333C18.3163 21.3167 18.6163 21.85 19.1163 22.15Z" fill="#1421FF"/>
</svg>
