<svg width="40" height="40" viewBox="0 0 40 40" fill="none" xmlns="http://www.w3.org/2000/svg">
<path fill-rule="evenodd" clip-rule="evenodd" d="M6.66634 6.66699H33.333C35.1663 6.66699 36.6663 8.16699 36.6663 10.0003V30.0003C36.6663 31.8337 35.1663 33.3337 33.333 33.3337H6.66634C4.83301 33.3337 3.33301 31.8337 3.33301 30.0003V10.0003C3.33301 8.16699 4.83301 6.66699 6.66634 6.66699ZM21.7663 20.567L32.6663 13.7503C33.083 13.4837 33.333 13.0337 33.333 12.5503C33.333 11.4337 32.1163 10.767 31.1663 11.3503L19.9997 18.3337L8.83301 11.3503C7.88301 10.767 6.66634 11.4337 6.66634 12.5503C6.66634 13.0337 6.91634 13.4837 7.33301 13.7503L18.233 20.567C19.3163 21.2503 20.683 21.2503 21.7663 20.567Z" fill="#1421FF"/>
</svg>
