<svg width="40" height="40" viewBox="0 0 40 40" fill="none" xmlns="http://www.w3.org/2000/svg">
<path fill-rule="evenodd" clip-rule="evenodd" d="M25 10.2021V18.8188H31.6667C33.5 18.8188 35 20.3188 35 22.1521V32.1521C35 33.9855 33.5 35.4855 31.6667 35.4855H8.33333C6.5 35.4855 5 33.9855 5 32.1521V15.4855C5 13.6521 6.5 12.1521 8.33333 12.1521H15V10.2021C15 9.31879 15.35 8.46879 15.9833 7.83546L18.8167 5.00212C19.1281 4.69004 19.5508 4.51465 19.9917 4.51465C20.4325 4.51465 20.8553 4.69004 21.1667 5.00212L24.0167 7.85212C24.65 8.46879 25 9.31879 25 10.2021ZM8.33333 32.1521H11.6667V28.8188H8.33333V32.1521ZM11.6667 25.4855H8.33333V22.1521H11.6667V25.4855ZM8.33333 18.8188H11.6667V15.4855H8.33333V18.8188ZM21.6667 32.1521H18.3333V28.8188H21.6667V32.1521ZM18.3333 25.4855H21.6667V22.1521H18.3333V25.4855ZM21.6667 18.8188H18.3333V15.4855H21.6667V18.8188ZM18.3333 12.1521H21.6667V8.81879H18.3333V12.1521ZM31.6667 32.1521H28.3333V28.8188H31.6667V32.1521ZM28.3333 25.4855H31.6667V22.1521H28.3333V25.4855Z" fill="#1421FF"/>
</svg>
