<svg width="40" height="40" viewBox="0 0 40 40" fill="none" xmlns="http://www.w3.org/2000/svg">
<path fill-rule="evenodd" clip-rule="evenodd" d="M8.33398 15.4421C8.33398 8.99206 13.5507 3.77539 20.0007 3.77539C26.4507 3.77539 31.6673 8.99206 31.6673 15.4421C31.6673 22.3921 24.3007 31.9754 21.284 35.6254C20.6173 36.4254 19.4007 36.4254 18.734 35.6254C15.7007 31.9754 8.33398 22.3921 8.33398 15.4421ZM15.834 15.4421C15.834 17.7421 17.7007 19.6087 20.0007 19.6087C22.3007 19.6087 24.1673 17.7421 24.1673 15.4421C24.1673 13.1421 22.3007 11.2754 20.0007 11.2754C17.7007 11.2754 15.834 13.1421 15.834 15.4421Z" fill="#1421FF"/>
</svg>
